<svg xmlns="http://www.w3.org/2000/svg" viewBox="0 0 600 400" width="100%" height="100%" preserveAspectRatio="none" role="img" aria-label="Botanical corner photo overlay">
  <title>Creative Roots Botanical Photo Frame</title>
  <g fill="none" stroke="#2C2C2A" stroke-width="2" stroke-linecap="round" stroke-linejoin="round">
    <!-- Top-Left Corner Botanical Branch -->
    <path d="M 10,80 Q 15,40 50,20 T 120,10" />
    <path d="M 30,50 Q 45,35 60,45 Q 45,55 30,50 Z" fill="#E8A020" fill-opacity="0.4" />
    <path d="M 65,25 Q 80,15 95,25 Q 80,35 65,25 Z" fill="#6B8F5E" fill-opacity="0.4" />
    <path d="M 20,65 Q 10,50 25,40" />
    
    <!-- Bottom-Right Corner Root/Leaf System -->
    <path d="M 590,320 Q 585,360 550,380 T 480,390" />
    <path d="M 570,350 Q 555,365 540,355 Q 555,345 570,350 Z" fill="#E8A020" fill-opacity="0.4" />
    <path d="M 535,375 Q 520,385 505,375 Q 520,365 535,375 Z" fill="#6B8F5E" fill-opacity="0.4" />
    <path d="M 580,335 Q 590,350 575,360" />
  </g>
</svg>
